# xmcd
#
# Track frame offsets: 
#        150
#        17339
#        30928
#        49307
#        69681
#        91051
#        107139
#        121058
#        137844
#        157495
#        176322
#        188724
#
# Disc length: 2691 seconds
#
# Revision: 0
# Processed by: cddbd v1.5.1PL2 Copyright (c) Steve Scherf et al.
# Submitted via: ExactAudioCopy v0.95b4
#
DISCID=970a810c
DTITLE=Johny Winter - Still ALive And Well
DYEAR=1973
DGENRE=Blues
TTITLE0=Rock Me Baby
TTITLE1=Can't you Feel it
TTITLE2=Cheap Tequila
TTITLE3=All Tore Down
TTITLE4=Rock and Roll
TTITLE5=Silver Train
TTITLE6=Ain't Nothing To Me
TTITLE7=Still Alive and Well
TTITLE8=Too Much Seconal
TTITLE9=Let it Bleed
TTITLE10=Lucille
TTITLE11=From a Buick Six
EXTD=
EXTT0=
EXTT1=
EXTT2=
EXTT3=
EXTT4=
EXTT5=
EXTT6=
EXTT7=
EXTT8=
EXTT9=
EXTT10=
EXTT11=
PLAYORDER=
